<svg xmlns="http://www.w3.org/2000/svg" xmlns:xlink="http://www.w3.org/1999/xlink" viewBox="0 0 512 512"><defs><style>.cls-1{fill:url(#linear-gradient);}</style><linearGradient id="linear-gradient" x1="-29.36" y1="420.75" x2="541.36" y2="91.25" gradientUnits="userSpaceOnUse"><stop offset="0" stop-color="#5f4c2f"/><stop offset="0.19" stop-color="#bfa065"/><stop offset="0.32" stop-color="#ebce6f"/><stop offset="0.52" stop-color="#fffcac"/><stop offset="0.73" stop-color="#ebce6f"/><stop offset="0.87" stop-color="#bfa065"/></linearGradient></defs><g id="Layer_6" data-name="Layer 6"><path class="cls-1" d="M458.17.5H53.83A53.33,53.33,0,0,0,.5,53.83V458.17A53.33,53.33,0,0,0,53.83,511.5H458.17a53.33,53.33,0,0,0,53.33-53.33V53.83A53.33,53.33,0,0,0,458.17.5ZM63.1,430.45V301.81h65.19a20.12,20.12,0,0,0-2.9,10.34v107.5a19.48,19.48,0,0,0,.84,5.57,19.89,19.89,0,0,0,2.25,5.23Zm345.22-60.53A732.88,732.88,0,0,1,283.9,443.15c-30.83,18.75-61.67,18.11-92.48,0l-45.51-23.5h0V312.15c53,0,62.05-2.4,109.86,27.69h37.56c17,1,25.91,18.25,9.38,29.58-13.16,9.66-30.55,9.11-48.37,7.51-12.29-.61-12.81,15.9,0,16,4.46.34,9.29-.7,13.51-.7,22.22,0,40.54-4.28,51.74-21.84l5.62-13.13,55.88-27.69C409,320.33,428.93,349.56,408.32,369.92ZM233,202.16h49.23c16.23,0,32.45,0,48.68-.05,2.49,0,2.89.48,1.86,2.8-3.09,7-6,14.08-8.9,21.17-.8,2-1.93,2.64-4.07,2.63-32.09-.07-64.19,0-96.28-.11-2.25,0-3.2.45-3.26,2.87-.1,4.59-.17,9.18.06,13.78.1,1.95.68,2.56,2.7,2.56q38.55-.12,77.08-.07c4.33,0,8.66.06,13,0,1.66,0,2.09.51,1.42,2.08q-4.83,11.3-9.56,22.65c-.65,1.56-1.72,1.82-3.2,1.8-9.56-.09-19.11-.17-28.67-.17-13.07,0-26.14.09-39.21.13-3.62,0-3.76.17-2,3.24,9.38,16.13,23.09,26.93,40.73,32.82a75.1,75.1,0,0,0,26,3.89c15.76-.46,30.32-4.92,43.22-14.2,1.88-1.35,2.69-1.23,3.76.86,3.17,6.21,6.42,12.38,9.68,18.54-10.23,5.06-20.44,10.19-30.67,15.26l-.06,0c-.44-.6-.9-1.18-1.37-1.75-14.62-17.62-40.94-13.6-61.27-13.6h-.35C245.05,309,227.42,299,208.25,294.92c-2.51-.53-5-1-7.58-1.37a113.06,113.06,0,0,1-7.3-16.42c-.8-2.26-1.88-3-4.26-2.95-11.09.13-22.18,0-33.27.09-2,0-2.57-.35-1.55-2.36q5.53-10.82,10.84-21.77a3.77,3.77,0,0,1,4-2.47c4.77.15,9.55,0,14.33.09,1.65,0,2.23-.44,2.08-2.15a83.52,83.52,0,0,1,0-14.58c.18-2-.48-2.42-2.33-2.41-9.11.08-18.22,0-27.32.08-2.14,0-2.79-.29-1.66-2.48q5.56-10.8,10.86-21.76a3.77,3.77,0,0,1,4-2.35c6.76.11,13.53-.05,20.28.09,2.16.05,3.14-.58,3.86-2.68a104.47,104.47,0,0,1,26.34-41.35,108.55,108.55,0,0,1,62.91-30.23c16.21-2.09,32.16-1.15,47.73,4.07a120.12,120.12,0,0,1,25.66,12.61c1.43.89,1.68,1.75,1,3.28q-6,13.9-11.77,27.87c-.76,1.82-1.6,1.75-3,.75a75.91,75.91,0,0,0-34.88-13.6c-29.55-3.74-60.09,8.5-75.72,36.68C230.12,202,230.21,202.16,233,202.16Zm213,85.71a182.92,182.92,0,0,1-15.93,39.93,47.85,47.85,0,0,0-22.43-17.69,40.07,40.07,0,0,0-5.65-1.74A151.09,151.09,0,1,0,121.78,199.11l14.91,2.36a8.85,8.85,0,0,1,4.54,15.37l-39.75,35.4a8.88,8.88,0,0,1-12.54-.73,8.43,8.43,0,0,1-1.33-2L61,204.19A8.86,8.86,0,0,1,70.09,191l18,2.85A185,185,0,1,1,446,287.87Z"/></g></svg>