<svg xmlns="http://www.w3.org/2000/svg" xmlns:xlink="http://www.w3.org/1999/xlink" viewBox="0 0 512 512"><defs><style>.cls-1{fill:url(#linear-gradient);}</style><linearGradient id="linear-gradient" x1="-29.36" y1="420.75" x2="541.36" y2="91.25" gradientUnits="userSpaceOnUse"><stop offset="0" stop-color="#5f4c2f"/><stop offset="0.19" stop-color="#bfa065"/><stop offset="0.32" stop-color="#ebce6f"/><stop offset="0.52" stop-color="#fffcac"/><stop offset="0.73" stop-color="#ebce6f"/><stop offset="0.87" stop-color="#bfa065"/></linearGradient></defs><g id="Layer_6" data-name="Layer 6"><path class="cls-1" d="M208.09,171.09c12.56.44,25.15.13,38.33.13-.5-1.31-.61-2.73-1.38-3.45-8.3-7.66-16.65-15.28-25.1-22.78a14.54,14.54,0,0,0-17.63-1.64,15,15,0,0,0-7.09,15.89C196.37,165.42,201.52,170.85,208.09,171.09Z"/><path class="cls-1" d="M327,171.4a21.67,21.67,0,0,0,3.41-.36,15.44,15.44,0,0,0,12.37-11.76,14.93,14.93,0,0,0-6.44-15.54c-6.12-4-13.17-3.34-19.13,2q-12.13,10.83-24.07,21.87c-.83.77-1,2.22-1.61,3.63,1.13.1,1.58.18,2,.18Q310.26,171.43,327,171.4Z"/><path class="cls-1" d="M458.17.5H53.83A53.33,53.33,0,0,0,.5,53.83V458.17A53.33,53.33,0,0,0,53.83,511.5H458.17a53.33,53.33,0,0,0,53.33-53.33V53.83A53.33,53.33,0,0,0,458.17.5Zm-192.64,457a200.52,200.52,0,0,1-113.78-35.19,17.7,17.7,0,0,1-5.16-23.56l.12-.21A17.79,17.79,0,0,1,172.16,393,165.73,165.73,0,1,0,107.91,204.7l16.75,2.91a9.92,9.92,0,0,1,4.85,17.23L112,240.2,88.16,261.12A9.92,9.92,0,0,1,73,258.48L57.56,230.74l-11.3-20.36a9.92,9.92,0,0,1,10.37-14.59l15.76,2.74c24.74-83.27,101.84-144,193.14-144A201.09,201.09,0,0,1,467,256.07C467,367.31,376.78,457.48,265.53,457.48ZM183.08,169.9c-7.87-15.31-1.83-33.65,13.81-40.87,3.86-1.79,8.31-2.3,12.49-3.4h1.84a3.53,3.53,0,0,0,.84.3c7.84.49,14.3,3.9,19.92,9.22,3.77,3.56,7.67,7,11.52,10.48l8.54,7.7a23,23,0,0,1,17.08-7.47c6.65,0,12.23,2.71,16.9,7.43,7-6.36,13.88-12.54,20.7-18.78a31.29,31.29,0,0,1,13.82-7.74c2.06-.49,4.18-.77,6.27-1.14h1.84c.82.14,1.63.34,2.46.41,16.32,1.44,29,16.75,27,33-.5,4.14-2.1,8.14-3.24,12.37h1.81c5,0,9.93-.06,14.89,0A15,15,0,0,1,385.67,182c.26.79.51,1.58.77,2.36v27.07c-1.72,4.42-5,6-9.67,6q-107.77-.12-215.56,0c-.69,0-1.38,0-2.06,0a7.61,7.61,0,0,1-7.54-7.66q-.11-11.68,0-23.39A14.4,14.4,0,0,1,156,176a14.77,14.77,0,0,1,10.89-4.57c5.54,0,11.08,0,16.92,0C183.45,170.69,183.28,170.29,183.08,169.9Zm188.08,62.85v2.53q0,54.11,0,108.23c0,10.43-6.29,16.77-16.66,16.77q-25.17,0-50.34,0c-25.77,0-99.07,0-120.91,0-9.94,0-16.35-6.43-16.36-16.37q0-54.46,0-108.93c0-.67.06-1.35.11-2.2H284.43v0Z"/><path class="cls-1" d="M274.1,251.54a43.34,43.34,0,0,0-23.63,11.8,41.35,41.35,0,0,0-10.4,16.18c-.37,1.05-.81,1.48-2,1.44-2.59-.1-5.18,0-7.77,0a1.56,1.56,0,0,0-1.67,1c-1,2.13-2.12,4.24-3.17,6.37-.47.95-.93,1.9-1.49,3.05h1.34c3.53,0,7,0,10.57,0,.74,0,1.1.2,1,1a4.83,4.83,0,0,0,0,.76v6c-.46,0-.81.05-1.16.05-1.73,0-3.46.06-5.18,0a1.77,1.77,0,0,0-1.9,1.21c-1,2.08-2,4.12-3.06,6.18-.48.95-.94,1.91-1.49,3h1.35c4.35,0,8.7,0,13.05,0a1.38,1.38,0,0,1,1.5,1c.79,2,1.54,3.95,2.52,5.82A42,42,0,0,0,263.89,336a42.92,42.92,0,0,0,14.19,3.36A48,48,0,0,0,288.6,339c6.24-.95,11.76-3.64,17-7,.69-.46.71-.83.36-1.48-1.31-2.44-2.59-4.89-3.88-7.34-.63-1.2-1.27-2.39-2-3.72A31.46,31.46,0,0,1,266.68,322a27.46,27.46,0,0,1-12.11-12.41c.59,0,.91-.07,1.23-.07,5.36,0,10.71-.1,16.07-.1q5.5,0,11,.12a1.53,1.53,0,0,0,1.68-1.12c1.13-2.79,2.34-5.56,3.51-8.34.1-.25.14-.52.27-1h-2.49l-17.58,0c-5.44,0-10.87,0-16.3,0-1,0-1.42-.33-1.39-1.35,0-1.65,0-3.31,0-5s.07-1.53,1.57-1.53q19,0,38.09,0a1.58,1.58,0,0,0,1.71-1.11c1.14-2.8,2.33-5.57,3.5-8.35a10.35,10.35,0,0,0,.29-1H254.5a26.88,26.88,0,0,1,13.4-13.1c11.18-5,21.89-3.72,32,3.07a2.1,2.1,0,0,0,.33-.44c1.61-3.77,3.19-7.54,4.81-11.3.31-.72-.13-1-.6-1.27A41.57,41.57,0,0,0,274.1,251.54Z"/></g></svg>