<svg xmlns="http://www.w3.org/2000/svg" xmlns:xlink="http://www.w3.org/1999/xlink" viewBox="0 0 512 512"><defs><style>.cls-1{fill:url(#linear-gradient);}.cls-2{fill:url(#linear-gradient-2);}</style><linearGradient id="linear-gradient" x1="0.5" y1="256" x2="511.5" y2="256" gradientUnits="userSpaceOnUse"><stop offset="0" stop-color="#5f4c2f"/><stop offset="0.19" stop-color="#bfa065"/><stop offset="0.32" stop-color="#ebce6f"/><stop offset="0.52" stop-color="#fffcac"/><stop offset="0.73" stop-color="#ebce6f"/><stop offset="0.87" stop-color="#bfa065"/></linearGradient><linearGradient id="linear-gradient-2" x1="-29.36" y1="420.75" x2="541.36" y2="91.25" xlink:href="#linear-gradient"/></defs><g id="Layer_6" data-name="Layer 6"><path class="cls-1" d="M458.17.5H53.83A53.33,53.33,0,0,0,.5,53.83V458.17A53.33,53.33,0,0,0,53.83,511.5H458.17a53.33,53.33,0,0,0,53.33-53.33V53.83A53.33,53.33,0,0,0,458.17.5ZM156.34,101.61c8.18-4.17,16.35-8.37,24.56-12.46a9.46,9.46,0,0,1,4.16-1q70.89.24,141.76.63a8.15,8.15,0,0,1,3.59.77q23,11.7,45.88,23.54a15.07,15.07,0,0,1,1.52,1.11c-1.23.6-2.1,1.07-3,1.45q-24.7,10.34-49.43,20.62a13.93,13.93,0,0,1-5.13,1.06q-65.16.18-130.31.2a10.54,10.54,0,0,1-4.24-.7q-25.32-11.06-50.6-22.29c-.37-.16-.71-.41-1.88-1.09Zm177.72,114.8H175.58c2.78-12.79,5.42-25,8.08-37.24,1.61-7.4,3.31-14.76,4.83-22.19.49-2.42,1.24-3.49,3.51-3.46q63.75.63,127.51,1c2.16,0,3,.85,3.48,3.45,3.48,18.33,7.12,36.61,10.69,54.91C333.89,214,333.92,215.07,334.06,216.41ZM101.28,147.12c4.68-7.18,9.44-14.29,14-21.53,1.23-1.93,2.21-2.64,4.33-1.65,17.69,8.29,35.43,16.41,53.18,24.52,1.56.72,2.34,1.46,1.85,3.79-4.16,19.8-8.21,39.63-12.3,59.45a12,12,0,0,1-.56,1.46L86.52,169.83C91.58,162,96.42,154.57,101.28,147.12ZM232.46,402.71,90,191.25a20.07,20.07,0,0,1,2.6,1c22,12.8,44.11,25.57,66.1,38.52,1.48.88,2.74,3,3.54,4.84q33.18,78.07,66.23,156.23L233,402.34Zm-55-169.57H333.1c-26,64-51.73,127.36-77.88,191.73C229.13,360.54,203.36,297,177.46,233.14ZM278.54,403l-.87-.85q9.22-21.7,18.43-43.4,25.95-61,52-122a11.3,11.3,0,0,1,4.18-5c21.61-12.75,43.3-25.32,65-37.92a3.47,3.47,0,0,1,2.61-.5Q349.18,298.2,278.54,403Zm69.93-190.36a16.81,16.81,0,0,1-.87-2.32c-3.85-19.11-7.66-38.24-11.56-57.33-.48-2.3-.08-3.28,1.76-4.15,17.67-8.33,35.28-16.82,52.95-25.12a3.25,3.25,0,0,1,3.35.73c10.4,14.59,20.68,29.31,31,44a6.46,6.46,0,0,1,.4,1.08Z"/><path class="cls-2" d="M458.17.5H53.83A53.33,53.33,0,0,0,.5,53.83V458.17A53.33,53.33,0,0,0,53.83,511.5H458.17a53.33,53.33,0,0,0,53.33-53.33V53.83A53.33,53.33,0,0,0,458.17.5ZM156.34,101.61c8.18-4.17,16.35-8.37,24.56-12.46a9.46,9.46,0,0,1,4.16-1q70.89.24,141.76.63a8.15,8.15,0,0,1,3.59.77q23,11.7,45.88,23.54a15.07,15.07,0,0,1,1.52,1.11c-1.23.6-2.1,1.07-3,1.45q-24.7,10.34-49.43,20.62a13.93,13.93,0,0,1-5.13,1.06q-65.16.18-130.31.2a10.54,10.54,0,0,1-4.24-.7q-25.32-11.06-50.6-22.29c-.37-.16-.71-.41-1.88-1.09Zm177.72,114.8H175.58c2.78-12.79,5.42-25,8.08-37.24,1.61-7.4,3.31-14.76,4.83-22.19.49-2.42,1.24-3.49,3.51-3.46q63.75.63,127.51,1c2.16,0,3,.85,3.48,3.45,3.48,18.33,7.12,36.61,10.69,54.91C333.89,214,333.92,215.07,334.06,216.41ZM101.28,147.12c4.68-7.18,9.44-14.29,14-21.53,1.23-1.93,2.21-2.64,4.33-1.65,17.69,8.29,35.43,16.41,53.18,24.52,1.56.72,2.34,1.46,1.85,3.79-4.16,19.8-8.21,39.63-12.3,59.45a12,12,0,0,1-.56,1.46L86.52,169.83C91.58,162,96.42,154.57,101.28,147.12ZM232.46,402.71,90,191.25a20.07,20.07,0,0,1,2.6,1c22,12.8,44.11,25.57,66.1,38.52,1.48.88,2.74,3,3.54,4.84q33.18,78.07,66.23,156.23L233,402.34Zm-55-169.57H333.1c-26,64-51.73,127.36-77.88,191.73C229.13,360.54,203.36,297,177.46,233.14ZM278.54,403l-.87-.85q9.22-21.7,18.43-43.4,25.95-61,52-122a11.3,11.3,0,0,1,4.18-5c21.61-12.75,43.3-25.32,65-37.92a3.47,3.47,0,0,1,2.61-.5Q349.18,298.2,278.54,403Zm69.93-190.36a16.81,16.81,0,0,1-.87-2.32c-3.85-19.11-7.66-38.24-11.56-57.33-.48-2.3-.08-3.28,1.76-4.15,17.67-8.33,35.28-16.82,52.95-25.12a3.25,3.25,0,0,1,3.35.73c10.4,14.59,20.68,29.31,31,44a6.46,6.46,0,0,1,.4,1.08Z"/></g></svg>